# xmcd CD database file
#
# Track frame offsets:
#	150
#	9937
#	17555
#	25445
#	34405
#	41235
#	51657
#	58520
#	69422
#	76540
#	85895
#	98450
#	106905
#
# Disc length: 1551 seconds
#
# Revision: 3
# Processed by: cddbd v1.5.1PL0 Copyright (c) Steve Scherf et al.
# Submitted via: CDex 1.51
#
DISCID=99060d0d
DTITLE=Hank Williams - Your Cheatin' Heart
DYEAR=1990
DGENRE=Country
TTITLE0=Your Cheatin' Heart
TTITLE1=Hey, Good Lookin'
TTITLE2=I Saw the Light
TTITLE3=Jambalya (On the Bayou)
TTITLE4=Ramblin' Man
TTITLE5=I'm So Lonesome I Could Cry
TTITLE6=Jamalaya (On the Bayou))
TTITLE7=Cold, Cold Heart
TTITLE8=Kau-Liba
TTITLE9=I Can't Help It (If I'm Still in Love With You)
TTITLE10=Hey, Good Lookin'
TTITLE11=Long Gone Lonesome Blues
TTITLE12=You Win Again
EXTD=YEAR: 1990
EXTT0=
EXTT1=
EXTT2=
EXTT3=
EXTT4=
EXTT5=
EXTT6=
EXTT7=
EXTT8=
EXTT9=
EXTT10=
EXTT11=
EXTT12=
PLAYORDER=
